<svg width="512" height="512" viewBox="0 0 512 512" xmlns="http://www.w3.org/2000/svg">
  <defs>
    <linearGradient id="bg" x1="0" y1="0" x2="0" y2="1">
      <stop offset="0%" stop-color="#FFFFFF"/>
      <stop offset="100%" stop-color="#EAF6FF"/>
    </linearGradient>
  </defs>
  <rect width="512" height="512" rx="112" fill="url(#bg)"/>
  <circle cx="256" cy="225" r="150" fill="none" stroke="#38A3E0" stroke-width="14"/>
  <g stroke="#38A3E0" stroke-width="8" stroke-linecap="round">
    <line x1="256" y1="83" x2="256" y2="103"/><line x1="327" y1="102" x2="317" y2="119"/>
    <line x1="379" y1="154" x2="362" y2="164"/><line x1="398" y1="225" x2="378" y2="225"/>
    <line x1="379" y1="296" x2="362" y2="286"/><line x1="327" y1="348" x2="317" y2="331"/>
    <line x1="256" y1="367" x2="256" y2="347"/><line x1="185" y1="348" x2="195" y2="331"/>
    <line x1="133" y1="296" x2="150" y2="286"/><line x1="114" y1="225" x2="134" y2="225"/>
    <line x1="133" y1="154" x2="150" y2="164"/><line x1="185" y1="102" x2="195" y2="119"/>
  </g>
  <text x="256" y="300" font-size="200" fill="#38A3E0" font-family="serif" text-anchor="middle">&#9835;</text>
  <text x="256" y="440" font-size="58" font-weight="800" fill="#2882BE" font-family="Arial" text-anchor="middle" letter-spacing="-1">KeyMaster</text>
  <text x="256" y="480" font-size="26" font-weight="700" fill="#38A3E0" font-family="Arial" text-anchor="middle" letter-spacing="3">PRO</text>
</svg>
